<?xml version="1.0" encoding="UTF-8" standalone="no"?>
<!-- Created with Inkscape (http://www.inkscape.org/) -->

<svg
   width="74.372459mm"
   height="47.226471mm"
   viewBox="0 0 74.37246 47.226472"
   version="1.1"
   id="svg5"
   xml:space="preserve"
   sodipodi:docname="gull_rect.svg"
   inkscape:version="1.2.2 (b0a8486541, 2022-12-01)"
   inkscape:export-filename="gull_export.png"
   inkscape:export-xdpi="96"
   inkscape:export-ydpi="96"
   xmlns:inkscape="http://www.inkscape.org/namespaces/inkscape"
   xmlns:sodipodi="http://sodipodi.sourceforge.net/DTD/sodipodi-0.dtd"
   xmlns:xlink="http://www.w3.org/1999/xlink"
   xmlns="http://www.w3.org/2000/svg"
   xmlns:svg="http://www.w3.org/2000/svg"><sodipodi:namedview
     id="namedview23"
     pagecolor="#ffffff"
     bordercolor="#000000"
     borderopacity="0.25"
     inkscape:showpageshadow="2"
     inkscape:pageopacity="0.0"
     inkscape:pagecheckerboard="0"
     inkscape:deskcolor="#d1d1d1"
     inkscape:document-units="mm"
     showgrid="false"
     inkscape:zoom="3.0477039"
     inkscape:cx="134.85562"
     inkscape:cy="81.208676"
     inkscape:window-width="1880"
     inkscape:window-height="1043"
     inkscape:window-x="0"
     inkscape:window-y="0"
     inkscape:window-maximized="1"
     inkscape:current-layer="svg5" /><defs
     id="defs2"><linearGradient
       id="linearGradient2062"><stop
         style="stop-color:#000000;stop-opacity:1;"
         offset="0"
         id="stop2058" /><stop
         style="stop-color:#3f3f3f;stop-opacity:0.37855056;"
         offset="0.41248068"
         id="stop2760" /><stop
         style="stop-color:#cbcbcb;stop-opacity:0;"
         offset="1"
         id="stop2060" /></linearGradient><linearGradient
       id="linearGradient2007"><stop
         style="stop-color:#000000;stop-opacity:1;"
         offset="0"
         id="stop2003" /><stop
         style="stop-color:#a9a9a9;stop-opacity:0;"
         offset="1"
         id="stop2005" /></linearGradient><linearGradient
       xlink:href="#linearGradient2007"
       id="linearGradient2009"
       x1="63.481403"
       y1="176.98984"
       x2="74.787994"
       y2="155.06042"
       gradientUnits="userSpaceOnUse"
       gradientTransform="translate(-25.050055,-129.2044)" /><radialGradient
       xlink:href="#linearGradient2062"
       id="radialGradient2758"
       cx="69.77877"
       cy="133.09056"
       fx="69.77877"
       fy="133.09056"
       r="19.091219"
       gradientTransform="matrix(-2.1665339,0.90959236,-0.62514166,-1.4890082,268.52555,134.78928)"
       gradientUnits="userSpaceOnUse" /></defs><path
     id="path1964"
     style="fill:#a7a7a7;fill-opacity:1;fill-rule:evenodd;stroke:none;stroke-width:0.4;stroke-linecap:round;stroke-linejoin:round;stroke-dasharray:none;paint-order:fill markers stroke"
     d="m 41.495183,25.590682 c -0.0317,-0.0651 1.14457,-13.26972 1.11248,-13.33477 -0.62374,-1.26449 -1.31392,-2.5211604 -2.04329,-3.7428604 -1.85351,-3.08121 -5.76039,-2.90441 -8.83265,-3.70594 -1.39935,-0.35346 -2.84771,-0.43789 -4.39408,-0.60677 -4.69946,-0.76704 -9.20696,-1.17767 -13.83938,-1.58553 -4.2914796,-0.37785 -6.1167896,-0.0525 -10.3855596,-0.22346 -2.54871996,1.476 2.58641,1.39963 3.70489,1.39445 3.4645196,0.5466 3.8832196,0.24318 7.8652496,0.94124 2.30169,0.19936 4.69314,0.66613 6.54498,2.07697 1.42102,0.5163 1.84583,2.04287 2.9282,2.93166 1.65821,2.1310504 3.03516,4.4891504 4.1092,6.9628204 0.23776,1.0825 0.62001,2.39375 0.72251,3.48456" /><path
     style="fill:#8f4000;fill-opacity:1;fill-rule:evenodd;stroke:none;stroke-width:0.4;stroke-linecap:round;stroke-linejoin:round;stroke-dasharray:none;paint-order:fill markers stroke"
     d="m 27.654433,27.664552 c -0.7463,1.81141 -2.16369,3.57394 -2.03241,5.60241 -1.46609,-0.0776 -1.85163,1.62442 -2.98458,1.85272 -0.68108,0.97235 -1.24397,1.18864 -2.13957,1.6675 -1.23948,1.20518 -1.94619,-0.8481 -0.94155,-1.56164 0.67754,1.57994 1.12082,-1.07072 1.62674,-0.94156 0.97588,0.051 2.48242,-1.37958 2.90102,-1.8928 1.04666,-0.90544 1.45922,-2.4566 2.01431,-3.80156 0.1341,-0.36145 0.43386,-0.63803 0.46877,-1.03591"
     id="path1966" /><path
     id="path1970"
     style="fill:#8f4000;fill-opacity:1;fill-rule:evenodd;stroke:none;stroke-width:0.4;stroke-linecap:round;stroke-linejoin:round;stroke-dasharray:none;paint-order:fill markers stroke"
     d="m 32.099703,28.830342 c -1.69173,1.34289 -2.99643,6.03148 -2.9245,7.63495 -1.05707,0.80503 -1.9807,1.64338 -2.71866,2.57678 -1.34104,0.16861 -2.24589,1.77668 -3.64271,1.46305 0.1888,-1.0908 1.90746,-1.317 1.58552,-2.27412 -0.54042,-0.42357 -1.95499,0.26046 -0.30682,-0.77365 1.24924,-0.54656 2.79778,-0.62933 3.37568,-2.06254 -0.43441,-0.6492 1.56315,-1.91621 1.39561,-3.29543 0.28387,-1.30293 0.86481,-2.51899 1.30864,-3.64072 0.0102,-0.46651 0.64669,-0.43398 0.92008,-0.67507" /><path
     id="path1972"
     style="fill:#cbcbcb;fill-opacity:1;fill-rule:evenodd;stroke:none;stroke-width:0.4;stroke-linecap:round;stroke-linejoin:round;stroke-dasharray:none;paint-order:fill markers stroke"
     d="m 30.638943,27.814582 c 0.73191,1.17864 2.37907,1.24517 3.30608,2.29258 1.76907,0.99881 3.84674,1.3899 5.79146,1.86562 l 0.12762,0.0202 c 3.30568,0.6179 6.85559,0.44139 9.84419,2.24396 1.38111,0.61466 2.55063,1.42585 3.88387,2.09749 1.56108,1.62308 4.05424,1.79178 5.74191,3.21634 0.26293,0.17876 0.38726,0.45774 0.5231,0.61747 l 2.39476,-0.45349 c -0.0844,-1.83201 0.76603,-3.91037 -0.23426,-5.5753 -0.97713,-2.06526 -2.96787,-3.26816 -4.66081,-4.74596 -0.61561,-1.33342 -1.63601,-2.70352 -2.01696,-4.25437 -1.23459,-2.01658 -1.04489,-4.69234 0.3105,-6.638 1.4172,-2.13324 3.35691,-3.77079 5.49688,-5.16204 2.1501,-1.43442 4.14966,-3.26535 6.47445,-4.3421304 0.77409,-1.24824 2.659665,-1.31405 2.884125,-3.03546 0.49268,-1.59322 1.33365,-3.33325 0.32331,-4.87194 -1.989825,-0.86631995 -4.455665,-0.18751995 -6.588025,0.0399 -3.02593,0.68711 -6.27866,0.80794 -9.04207,2.27526 -1.96462,0.56773 -1.24783,3.77035 -3.61265,2.99586 -2.78016,0.0178 -5.13773,1.99829 -6.97326,4.0458504 -1.76907,1.80262 -3.17178,3.89113 -4.69235,5.88917 -1.34767,0.80356 -1.52922,2.19529 -3.05333,3.15531 -1.05871,0.75766 -3.504234,0.56747 -4.788574,0.0833" /><path
     id="path1978"
     style="fill:url(#linearGradient2009);fill-opacity:1;fill-rule:evenodd;stroke:none;stroke-width:0.4;stroke-linecap:round;stroke-linejoin:round;stroke-dasharray:none;paint-order:fill markers stroke"
     d="m 30.638943,27.814582 c 0.73191,1.17864 2.37907,1.24517 3.30608,2.29258 1.76907,0.99881 3.84674,1.3899 5.79146,1.86562 l 0.12762,0.0202 c 3.30568,0.6179 6.85559,0.44139 9.84419,2.24396 1.38111,0.61466 2.55063,1.42585 3.88387,2.09749 1.56108,1.62308 4.05424,1.79178 5.74191,3.21634 0.26293,0.17876 0.38726,0.45774 0.5231,0.61747 l 2.39476,-0.45349 c -0.0844,-1.83201 0.76603,-3.91037 -0.23426,-5.5753 -0.97713,-2.06526 -2.96787,-3.26816 -4.66081,-4.74596 -0.61561,-1.33342 -1.63601,-2.70352 -2.01696,-4.25437 -4.737423,-1.08468 -19.331655,-4.36193 -23.388763,-5.54767" /><path
     style="fill:#000000;fill-opacity:1;fill-rule:evenodd;stroke:none;stroke-width:0.657519;stroke-linecap:round;stroke-linejoin:round;stroke-dasharray:none;paint-order:fill markers stroke"
     d="m 61.39783,35.77664 c -0.710224,-0.499361 -1.342874,0.453498 -0.599878,1.040658 0.435974,0.344537 1.367455,-0.500951 0.599878,-1.040658 z"
     id="path1976" /><path
     style="fill:#ff7300;fill-opacity:1;fill-rule:evenodd;stroke:none;stroke-width:0.434906;stroke-linecap:round;stroke-linejoin:round;stroke-dasharray:none;paint-order:fill markers stroke"
     d="m 62.321243,39.831282 c 0.39582,1.84074 2.96184,5.37769 0.52948,6.58766 -0.68553,-2.06125 -3.26376,-5.01356 -3.02833,-6.64999 0.72492,-0.3252 1.84294,-0.48149 2.49885,0.0623 z"
     id="path1974" /><path
     id="path1968"
     style="fill:#cbcbcb;fill-opacity:1;fill-rule:evenodd;stroke:none;stroke-width:0.4;stroke-linecap:round;stroke-linejoin:round;stroke-dasharray:none;paint-order:fill markers stroke"
     d="m 32.081695,19.575252 c -3.15343,-0.40752 -6.437372,2.00027 -9.302292,-0.1298 -1.55497,-0.80436 -3.08671,-1.56185 -4.7595,-2.23898 -1.49884,-0.3966 0.20195,1.99597 -1.04988,0.9979 -1.10778,-0.72264 -4.11541,0.0923 -2.21492,1.2912 -1.26701,-0.24934 -3.43877,0.0586 -2.17621,1.70172 1.10282,0.0643 -2.8551296,0.4336 -0.47349,1.6656 0.95018,0.83134 1.60182,-0.0339 -0.16487,0.68597 -1.90902,1.25676 2.33408,2.02982 0.47879,1.84089 -0.54346,0.59956 -0.67331,1.75272 0.64007,1.25709 1.6294,-0.18325 2.92698,-0.99689 4.59059,-0.88734 -0.22193,0.83032 -2.85386,1.54863 -1.70972,2.1241 1.69744,-0.94945 3.27633,0.6275 5.03546,-0.0147 1.18677,-1.09339 2.19535,0.81086 3.73361,-0.22242 2.11619,0.27281 4.26501,0.1576 6.47869,0.0733 1.80978,0.23593 4.120687,1.13262 5.522697,0.42825 -0.196433,-0.82887 -0.865827,-1.33213 -2.388837,-4.11475" /><path
     id="path2056"
     style="fill:url(#radialGradient2758);fill-opacity:1;fill-rule:evenodd;stroke:none;stroke-width:0.4;stroke-linecap:round;stroke-linejoin:round;stroke-dasharray:none;paint-order:fill markers stroke"
     d="m 47.043224,22.277362 c 3.679959,-0.90446 7.251789,-1.83058 8.607179,-3.77624 1.4172,-2.13324 3.35691,-3.77079 5.49688,-5.16204 2.1501,-1.43442 4.14966,-3.26535 6.47445,-4.3421304 0.77409,-1.24824 2.65967,-1.31405 2.88413,-3.03546 0.49268,-1.59322 1.33365,-3.33325 0.32331,-4.87194 -1.98983,-0.86631995 -4.45567,-0.18751995 -6.58803,0.0399 -3.02593,0.68711 -6.27866,0.80794 -9.04207,2.27526 -1.96462,0.56773 -1.24783,3.77035 -3.61265,2.99586 -2.78016,0.0178 -5.13773,1.99829 -6.97326,4.0458504 -1.76907,1.80262 -3.17178,3.89113 -4.69235,5.88917 -1.34767,0.80356 -1.52922,2.19529 -3.05333,3.15531 -1.212383,0.60405 -2.291082,0.58675 -3.823275,0.34674 5.189701,3.7964 13.999016,2.43972 13.999016,2.43972 z" /></svg>
